<svg id="G_" data-name="G+" xmlns="http://www.w3.org/2000/svg" width="16.97" height="17.97" viewBox="0 0 16.97 17.97">
  <metadata><?xpacket begin="﻿" id="W5M0MpCehiHzreSzNTczkc9d"?>
<x:xmpmeta xmlns:x="adobe:ns:meta/" x:xmptk="Adobe XMP Core 5.6-c140 79.160451, 2017/05/06-01:08:21        ">
   <rdf:RDF xmlns:rdf="http://www.w3.org/1999/02/22-rdf-syntax-ns#">
      <rdf:Description rdf:about=""/>
   </rdf:RDF>
</x:xmpmeta>
                                                                                                    
                                                                                                    
                                                                                                    
                                                                                                    
                                                                                                    
                                                                                                    
                                                                                                    
                                                                                                    
                                                                                                    
                                                                                                    
                                                                                                    
                                                                                                    
                                                                                                    
                                                                                                    
                                                                                                    
                                                                                                    
                                                                                                    
                                                                                                    
                                                                                                    
                                                                                                    
                           
<?xpacket end="w"?></metadata>
<defs>
    <style>
      .cls-1 {
        fill: #bbb;
        fill-rule: evenodd;
      }
    </style>
  </defs>
  <path id="fa-google-plus" class="cls-1" d="M1039.92,4744.2a4.334,4.334,0,0,1,.63-0.67,9.6,9.6,0,0,0,.75-0.7,3.062,3.062,0,0,0,.63-1,3.5,3.5,0,0,0,.27-1.4,3.6,3.6,0,0,0-.41-1.73,4.951,4.951,0,0,0-1.2-1.44h1.4l1.48-.95h-4.48a7.915,7.915,0,0,0-2.33.34,5.53,5.53,0,0,0-1.96,1.06,4.044,4.044,0,0,0-1.06,1.42,4,4,0,0,0-.39,1.72,3.485,3.485,0,0,0,1.09,2.64,3.689,3.689,0,0,0,2.67,1.04c0.16,0,.4-0.01.73-0.04a2.388,2.388,0,0,0-.22.92,1.829,1.829,0,0,0,.16.79,6.383,6.383,0,0,0,.51.8,9.541,9.541,0,0,0-4.33,1.08,3.963,3.963,0,0,0-1.27,1.24,2.949,2.949,0,0,0-.48,1.62,2.629,2.629,0,0,0,.4,1.42,3.374,3.374,0,0,0,1.84,1.48,7.624,7.624,0,0,0,2.64.45,8.114,8.114,0,0,0,3.2-.62,4.543,4.543,0,0,0,2.26-1.94,3.646,3.646,0,0,0,.52-1.87,3.376,3.376,0,0,0-.35-1.53,3.622,3.622,0,0,0-.82-1.13c-0.32-.28-0.65-0.55-0.97-0.79a5.571,5.571,0,0,1-.83-0.74,1.11,1.11,0,0,1-.35-0.76A1.149,1.149,0,0,1,1039.92,4744.2Zm-2.87-.61a2.625,2.625,0,0,1-.8-0.72,4.612,4.612,0,0,1-.56-1,5.886,5.886,0,0,1-.34-1.11,5.786,5.786,0,0,1-.11-1.06,2.719,2.719,0,0,1,.51-1.73,1.952,1.952,0,0,1,.7-0.56,2.037,2.037,0,0,1,.89-0.21,1.968,1.968,0,0,1,1.25.44,3.234,3.234,0,0,1,.91,1.12,6.925,6.925,0,0,1,.52,1.4,5.581,5.581,0,0,1,.18,1.35,2.446,2.446,0,0,1-.57,1.72,2.047,2.047,0,0,1-.71.47,2.09,2.09,0,0,1-.83.17A2,2,0,0,1,1037.05,4743.59Zm-0.31,9.56a5.317,5.317,0,0,1-1.28-.47,2.565,2.565,0,0,1-.98-0.9,2.4,2.4,0,0,1-.37-1.33,2.15,2.15,0,0,1,.29-1.14,2.389,2.389,0,0,1,.73-0.81,4.362,4.362,0,0,1,1.04-.5,6.454,6.454,0,0,1,1.16-.27,8.317,8.317,0,0,1,1.12-.07,3.641,3.641,0,0,1,.52.02c0.02,0.01.15,0.11,0.39,0.28s0.39,0.28.44,0.32,0.19,0.15.39,0.32a3.075,3.075,0,0,1,.42.37c0.07,0.08.18,0.21,0.31,0.38a1.757,1.757,0,0,1,.29.45,3.326,3.326,0,0,1,.16.45,1.882,1.882,0,0,1,.07.53,2.271,2.271,0,0,1-.29,1.18,2.189,2.189,0,0,1-.78.79,4.586,4.586,0,0,1-1.07.42,5.169,5.169,0,0,1-1.19.14A5.7,5.7,0,0,1,1036.74,4753.15Zm10.06-11.65h-1.13v2.34h-2.27v1.17h2.27v2.37h1.13v-2.37h2.28v-1.17h-2.28v-2.34Z" transform="translate(-1032.12 -4736.31)"/>
</svg>
