<svg id="G_" data-name="G+" xmlns="http://www.w3.org/2000/svg" width="52.56" height="52.5" viewBox="0 0 52.56 52.5">
  <metadata><?xpacket begin="﻿" id="W5M0MpCehiHzreSzNTczkc9d"?>
<x:xmpmeta xmlns:x="adobe:ns:meta/" x:xmptk="Adobe XMP Core 5.6-c140 79.160451, 2017/05/06-01:08:21        ">
   <rdf:RDF xmlns:rdf="http://www.w3.org/1999/02/22-rdf-syntax-ns#">
      <rdf:Description rdf:about=""/>
   </rdf:RDF>
</x:xmpmeta>
                                                                                                    
                                                                                                    
                                                                                                    
                                                                                                    
                                                                                                    
                                                                                                    
                                                                                                    
                                                                                                    
                                                                                                    
                                                                                                    
                                                                                                    
                                                                                                    
                                                                                                    
                                                                                                    
                                                                                                    
                                                                                                    
                                                                                                    
                                                                                                    
                                                                                                    
                                                                                                    
                           
<?xpacket end="w"?></metadata>
<defs>
    <style>
      .cls-1 {
        fill: #151515;
      }

      .cls-1, .cls-2 {
        fill-rule: evenodd;
      }

      .cls-2 {
        fill: #fff;
      }
    </style>
  </defs>
  <path id="Afgeronde_rechthoek_1_kopiëren_3" data-name="Afgeronde rechthoek 1 kopiëren 3" class="cls-1" d="M1530.93,830.741h0.06a26.259,26.259,0,1,1,0,52.517h-0.06A26.259,26.259,0,0,1,1530.93,830.741Z" transform="translate(-1504.69 -830.75)"/>
  <path id="fa-google-plus" class="cls-2" d="M1530.51,855.841a6.64,6.64,0,0,1,.93-0.961q0.54-.462,1.08-1.016a4.776,4.776,0,0,0,.91-1.454,5.21,5.21,0,0,0,.38-2.025,5.112,5.112,0,0,0-.59-2.5,7.3,7.3,0,0,0-1.74-2.079h2.04l2.14-1.376h-6.49a11.454,11.454,0,0,0-3.37.5,7.685,7.685,0,0,0-2.83,1.533,6.016,6.016,0,0,0-1.54,2.048,5.873,5.873,0,0,0-.56,2.484,5.068,5.068,0,0,0,1.58,3.822,5.381,5.381,0,0,0,3.87,1.509q0.345,0,1.05-.063a3.6,3.6,0,0,0-.32,1.329,2.605,2.605,0,0,0,.24,1.141,7.013,7.013,0,0,0,.73,1.156,13.742,13.742,0,0,0-6.26,1.563,5.763,5.763,0,0,0-1.84,1.8,4.265,4.265,0,0,0-.69,2.344,3.867,3.867,0,0,0,.57,2.048,4.944,4.944,0,0,0,2.66,2.15,11.111,11.111,0,0,0,3.83.648,11.89,11.89,0,0,0,4.62-.9,6.585,6.585,0,0,0,3.27-2.805,5.332,5.332,0,0,0,.75-2.705,4.939,4.939,0,0,0-.5-2.219,5.407,5.407,0,0,0-1.19-1.626q-0.705-.624-1.41-1.149a8.416,8.416,0,0,1-1.2-1.063,1.636,1.636,0,0,1-.5-1.1A1.711,1.711,0,0,1,1530.51,855.841Zm-4.14-.875a3.8,3.8,0,0,1-1.16-1.047,6.563,6.563,0,0,1-.81-1.446,9.014,9.014,0,0,1-.49-1.61,8.339,8.339,0,0,1-.15-1.524,3.909,3.909,0,0,1,.73-2.5,2.731,2.731,0,0,1,1.01-.82,2.925,2.925,0,0,1,1.28-.305,2.887,2.887,0,0,1,1.82.641,4.68,4.68,0,0,1,1.31,1.618,9.374,9.374,0,0,1,.75,2.025,7.848,7.848,0,0,1,.27,1.953,3.519,3.519,0,0,1-.83,2.485,2.989,2.989,0,0,1-1.02.68,3.139,3.139,0,0,1-1.21.259A2.9,2.9,0,0,1,1526.37,854.966Zm-0.45,13.826a7.771,7.771,0,0,1-1.84-.688,3.7,3.7,0,0,1-1.42-1.3,3.406,3.406,0,0,1-.55-1.931,3.232,3.232,0,0,1,.42-1.648,3.5,3.5,0,0,1,1.07-1.165,5.868,5.868,0,0,1,1.5-.719,9.517,9.517,0,0,1,1.67-.391,12.283,12.283,0,0,1,1.63-.109,6.06,6.06,0,0,1,.74.032q0.045,0.03.57,0.4c0.34,0.251.56,0.407,0.64,0.469l0.57,0.453a6.85,6.85,0,0,1,.6.54q0.15,0.18.45,0.547a2.834,2.834,0,0,1,.42.649c0.08,0.187.15,0.406,0.23,0.656a2.838,2.838,0,0,1,.11.767,3.375,3.375,0,0,1-.43,1.7,3.1,3.1,0,0,1-1.13,1.141,5.965,5.965,0,0,1-1.54.61,7.254,7.254,0,0,1-1.73.2A8.778,8.778,0,0,1,1525.92,868.792Zm14.55-16.859h-1.63v3.393h-3.29v1.687h3.29v3.424h1.63v-3.424h3.3v-1.687h-3.3v-3.393Z" transform="translate(-1504.69 -830.75)"/>
</svg>
