<svg id="Pinterest" xmlns="http://www.w3.org/2000/svg" width="16.47" height="16.62" viewBox="0 0 16.47 16.62">
  <metadata><?xpacket begin="﻿" id="W5M0MpCehiHzreSzNTczkc9d"?>
<x:xmpmeta xmlns:x="adobe:ns:meta/" x:xmptk="Adobe XMP Core 5.6-c140 79.160451, 2017/05/06-01:08:21        ">
   <rdf:RDF xmlns:rdf="http://www.w3.org/1999/02/22-rdf-syntax-ns#">
      <rdf:Description rdf:about=""/>
   </rdf:RDF>
</x:xmpmeta>
                                                                                                    
                                                                                                    
                                                                                                    
                                                                                                    
                                                                                                    
                                                                                                    
                                                                                                    
                                                                                                    
                                                                                                    
                                                                                                    
                                                                                                    
                                                                                                    
                                                                                                    
                                                                                                    
                                                                                                    
                                                                                                    
                                                                                                    
                                                                                                    
                                                                                                    
                                                                                                    
                           
<?xpacket end="w"?></metadata>
<defs>
    <style>
      .cls-1 {
        fill: #bbb;
        fill-rule: evenodd;
      }
    </style>
  </defs>
  <path id="fa-pinterest" class="cls-1" d="M1093.61,4738a8.257,8.257,0,0,0-8.27,0,8.275,8.275,0,0,0-3,3.02,8.331,8.331,0,0,0,3.83,11.77,7.215,7.215,0,0,1,.14-1.91l1.06-4.52a2.856,2.856,0,0,1-.27-1.31,2.536,2.536,0,0,1,.46-1.54,1.389,1.389,0,0,1,1.13-.62,1.013,1.013,0,0,1,.83.36,1.408,1.408,0,0,1,.29.9,3.054,3.054,0,0,1-.13.81c-0.08.32-.19,0.7-0.32,1.12s-0.23.76-.28,1.01a1.25,1.25,0,0,0,.24,1.13,1.338,1.338,0,0,0,1.06.47,2.159,2.159,0,0,0,1.88-1.29,6.207,6.207,0,0,0,.73-3.12,3.073,3.073,0,0,0-.9-2.3,3.484,3.484,0,0,0-2.53-.89,3.856,3.856,0,0,0-2.93,1.17,3.911,3.911,0,0,0-1.12,2.81,2.483,2.483,0,0,0,.54,1.63,0.5,0.5,0,0,1,.12.46c-0.01.05-.04,0.15-0.09,0.33s-0.07.28-.08,0.33a0.269,0.269,0,0,1-.41.22,2.4,2.4,0,0,1-1.25-1.2,4.308,4.308,0,0,1-.43-1.98,4.62,4.62,0,0,1,.23-1.45,4.783,4.783,0,0,1,.72-1.4,5.494,5.494,0,0,1,1.17-1.19,5.319,5.319,0,0,1,1.65-.83,6.811,6.811,0,0,1,2.11-.32,5.528,5.528,0,0,1,2.73.68,4.858,4.858,0,0,1,1.85,1.77,4.425,4.425,0,0,1,.64,2.31,7.38,7.38,0,0,1-.56,2.92,4.759,4.759,0,0,1-1.58,2.03,3.772,3.772,0,0,1-2.31.74,2.6,2.6,0,0,1-1.23-.3,1.853,1.853,0,0,1-.78-0.73c-0.32,1.27-.51,2.03-0.58,2.28a6.513,6.513,0,0,1-.83,1.77,8.111,8.111,0,0,0,6.47-.77A8.329,8.329,0,0,0,1093.61,4738Z" transform="translate(-1081.25 -4736.88)"/>
</svg>
