<svg id="Twitter" xmlns="http://www.w3.org/2000/svg" xmlns:xlink="http://www.w3.org/1999/xlink" width="16.906" height="13.81" viewBox="0 0 16.906 13.81">
  <metadata><?xpacket begin="﻿" id="W5M0MpCehiHzreSzNTczkc9d"?>
<x:xmpmeta xmlns:x="adobe:ns:meta/" x:xmptk="Adobe XMP Core 5.6-c140 79.160451, 2017/05/06-01:08:21        ">
   <rdf:RDF xmlns:rdf="http://www.w3.org/1999/02/22-rdf-syntax-ns#">
      <rdf:Description rdf:about=""/>
   </rdf:RDF>
</x:xmpmeta>
                                                                                                    
                                                                                                    
                                                                                                    
                                                                                                    
                                                                                                    
                                                                                                    
                                                                                                    
                                                                                                    
                                                                                                    
                                                                                                    
                                                                                                    
                                                                                                    
                                                                                                    
                                                                                                    
                                                                                                    
                                                                                                    
                                                                                                    
                                                                                                    
                                                                                                    
                                                                                                    
                           
<?xpacket end="w"?></metadata>
<defs>
    <style>
      .cls-1 {
        fill: #82f4d3;
        fill-rule: evenodd;
        filter: url(#filter);
      }
    </style>
    <filter id="filter" x="931.406" y="4738.69" width="16.906" height="13.81" filterUnits="userSpaceOnUse">
      <feFlood result="flood" flood-color="#bbb"/>
      <feComposite result="composite" operator="in" in2="SourceGraphic"/>
      <feBlend result="blend" in2="SourceGraphic"/>
    </filter>
  </defs>
  <path id="fa-twitter" class="cls-1" d="M946.312,4740.86a3.415,3.415,0,0,0,1.524-1.93,6.751,6.751,0,0,1-2.2.84,3.46,3.46,0,0,0-4.983-.08,3.385,3.385,0,0,0-1.014,2.47,3.891,3.891,0,0,0,.086.8,9.635,9.635,0,0,1-3.985-1.07,9.952,9.952,0,0,1-3.159-2.58,3.531,3.531,0,0,0-.054,3.43,3.516,3.516,0,0,0,1.126,1.24,3.446,3.446,0,0,1-1.566-.44v0.04a3.5,3.5,0,0,0,2.779,3.43,4.019,4.019,0,0,1-.912.11,3.879,3.879,0,0,1-.655-0.05,3.4,3.4,0,0,0,1.223,1.72,3.34,3.34,0,0,0,2.017.7,6.718,6.718,0,0,1-4.3,1.49,7.131,7.131,0,0,1-.836-0.04,9.608,9.608,0,0,0,5.32,1.57,10.127,10.127,0,0,0,3.465-.59,8.927,8.927,0,0,0,2.768-1.58,10.515,10.515,0,0,0,1.979-2.28,10.089,10.089,0,0,0,1.239-2.68,9.981,9.981,0,0,0,.408-2.81c0-.2,0-0.35-0.011-0.45a7.451,7.451,0,0,0,1.738-1.8,7.416,7.416,0,0,1-2,.54h0Z" transform="translate(-931.406 -4738.69)"/>
</svg>
