<svg xmlns="http://www.w3.org/2000/svg" viewBox="0 0 53 53"><defs><style>.cls-1{fill:#151515;}.cls-2{fill:#fff;}</style></defs><title>twitter</title><g id="Layer_2" data-name="Layer 2"><g id="Banner"><g id="_01" data-name="01"><g id="Social_media" data-name="Social media"><g id="Twitter"><g id="Afgeronde_rechthoek_1_kopiëren" data-name="Afgeronde rechthoek 1 kopiëren"><rect class="cls-1" width="53" height="53" rx="26.25"/></g><g id="fa-twitter"><path class="cls-2" d="M39,20.22a10,10,0,0,1-2.88.79,4.93,4.93,0,0,0,2.2-2.79,9.63,9.63,0,0,1-3.18,1.22,5,5,0,0,0-8.67,3.46,5.76,5.76,0,0,0,.12,1.15,13.81,13.81,0,0,1-5.76-1.55,14.16,14.16,0,0,1-4.57-3.73,4.93,4.93,0,0,0-.69,2.55,5.05,5.05,0,0,0,2.24,4.2,4.91,4.91,0,0,1-2.27-.64V25a5,5,0,0,0,4,4.95,5.35,5.35,0,0,1-2.26.09,5,5,0,0,0,1.77,2.5,4.83,4.83,0,0,0,2.91,1,9.75,9.75,0,0,1-6.22,2.16,11.12,11.12,0,0,1-1.21-.06,13.86,13.86,0,0,0,7.7,2.27,14.57,14.57,0,0,0,5-.86,12.48,12.48,0,0,0,4-2.28,15,15,0,0,0,2.86-3.29,14.62,14.62,0,0,0,1.79-3.88,14.2,14.2,0,0,0,.59-4.06c0-.29,0-.51,0-.66A10.23,10.23,0,0,0,39,20.22Z"/></g></g></g></g></g></g></svg>